<svg xmlns:xlink="http://www.w3.org/1999/xlink" width="512" xmlns="http://www.w3.org/2000/svg" height="512" id="screenshot-f3622cfe-1c15-80dd-8003-c825860d70e6" viewBox="0 0 512 512" style="-webkit-print-color-adjust: exact;" fill="none" version="1.1"><g id="shape-f3622cfe-1c15-80dd-8003-c825860d70e6" rx="0" ry="0" style="fill: rgb(0, 0, 0);"><g id="shape-f3622cfe-1c15-80dd-8003-c825860dc7f8"><g class="fills" id="fills-f3622cfe-1c15-80dd-8003-c825860dc7f8"><path rx="0" ry="0" d="M225.800,468.200L223.300,465.900L48.100,303.200C17.400,274.700,0.000,234.700,0.000,192.800L0.000,189.500C0.000,119.100,50.000,58.700,119.200,45.500C158.600,37.900,198.900,47.000,231.000,69.600C240.000,76.000,248.400,83.400,256.000,91.900C260.200,87.100,264.700,82.700,269.500,78.600C273.200,75.400,277.000,72.400,281.000,69.600C281.000,69.600,281.000,69.600,281.000,69.600C313.100,47.000,353.400,37.900,392.800,45.400C462.000,58.600,512.000,119.100,512.000,189.500L512.000,192.800C512.000,234.700,494.600,274.700,463.900,303.200L288.700,465.900L286.200,468.200C278.000,475.800,267.200,480.100,256.000,480.100C244.800,480.100,234.000,475.900,225.800,468.200ZZM239.100,145.000C238.700,144.700,238.400,144.300,238.100,143.900L220.300,123.900C220.300,123.900,220.200,123.800,220.200,123.800C220.200,123.800,220.200,123.800,220.200,123.800C197.100,97.900,162.200,86.100,128.200,92.600C81.600,101.500,48.000,142.100,48.000,189.500L48.000,192.800C48.000,221.300,59.900,248.600,80.800,268.000L256.000,430.700L431.200,268.000C452.100,248.600,464.000,221.300,464.000,192.800L464.000,189.500C464.000,142.200,430.400,101.500,383.900,92.600C349.900,86.100,314.900,98.000,291.900,123.800C291.900,123.800,291.900,123.800,291.800,123.900C291.700,124.000,291.800,123.900,291.700,124.000L273.900,144.000C273.600,144.400,273.200,144.700,272.900,145.100C268.400,149.600,262.300,152.100,256.000,152.100C249.700,152.100,243.600,149.600,239.100,145.100Z" style="fill: rgb(255, 255, 255); fill-opacity: 1;"/></g></g></g></svg>