<svg xmlns:xlink="http://www.w3.org/1999/xlink" width="448" xmlns="http://www.w3.org/2000/svg" height="512" id="screenshot-f3622cfe-1c15-80dd-8003-c825860a722c" viewBox="0 0 448 512" style="-webkit-print-color-adjust: exact;" fill="none" version="1.1"><g id="shape-f3622cfe-1c15-80dd-8003-c825860a722c" rx="0" ry="0" style="fill: rgb(0, 0, 0);"><g id="shape-f3622cfe-1c15-80dd-8003-c825860ad1b5"><g class="fills" id="fills-f3622cfe-1c15-80dd-8003-c825860ad1b5"><path rx="0" ry="0" d="M160.000,112.000C160.000,76.700,188.700,48.000,224.000,48.000C259.300,48.000,288.000,76.700,288.000,112.000L288.000,160.000L160.000,160.000L160.000,112.000ZZM112.000,160.000L48.000,160.000C21.500,160.000,0.000,181.500,0.000,208.000L0.000,416.000C0.000,469.000,43.000,512.000,96.000,512.000L352.000,512.000C405.000,512.000,448.000,469.000,448.000,416.000L448.000,208.000C448.000,181.500,426.500,160.000,400.000,160.000L336.000,160.000L336.000,112.000C336.000,50.100,285.900,0.000,224.000,0.000C162.100,0.000,112.000,50.100,112.000,112.000L112.000,160.000ZZM136.000,208.000C149.255,208.000,160.000,218.745,160.000,232.000C160.000,245.255,149.255,256.000,136.000,256.000C122.745,256.000,112.000,245.255,112.000,232.000C112.000,218.745,122.745,208.000,136.000,208.000ZZM288.000,232.000C288.000,218.745,298.745,208.000,312.000,208.000C325.255,208.000,336.000,218.745,336.000,232.000C336.000,245.255,325.255,256.000,312.000,256.000C298.745,256.000,288.000,245.255,288.000,232.000ZZ" style="fill: rgb(255, 255, 255); fill-opacity: 1;"/></g></g></g></svg>