<svg xmlns:xlink="http://www.w3.org/1999/xlink" width="448" xmlns="http://www.w3.org/2000/svg" height="512" id="screenshot-f3622cfe-1c15-80dd-8003-c81ddfdd4e60" viewBox="0 0 448 512" style="-webkit-print-color-adjust: exact;" fill="none" version="1.1"><g id="shape-f3622cfe-1c15-80dd-8003-c81ddfdd4e60" rx="0" ry="0" style="fill: rgb(0, 0, 0);"><g id="shape-f3622cfe-1c15-80dd-8003-c81ddfdf658c"><g class="fills" id="fills-f3622cfe-1c15-80dd-8003-c81ddfdf658c"><path rx="0" ry="0" d="M64.000,32.000C28.700,32.000,0.000,60.700,0.000,96.000L0.000,416.000C0.000,451.300,28.700,480.000,64.000,480.000L162.200,480.000L162.200,334.200L109.400,334.200L109.400,256.000L162.200,256.000L162.200,222.300C162.200,135.200,201.600,94.800,287.200,94.800C303.400,94.800,331.400,98.000,342.900,101.200L342.900,172.000C336.900,171.400,326.400,171.000,313.300,171.000C271.300,171.000,255.100,186.900,255.100,228.200L255.100,256.000L338.700,256.000L324.300,334.200L255.000,334.200L255.000,480.000L384.000,480.000C419.300,480.000,448.000,451.300,448.000,416.000L448.000,96.000C448.000,60.700,419.300,32.000,384.000,32.000L64.000,32.000ZZ" style="fill: rgb(255, 255, 255); fill-opacity: 1;"/></g></g></g></svg>