<svg xmlns:xlink="http://www.w3.org/1999/xlink" width="448" xmlns="http://www.w3.org/2000/svg" height="512" id="screenshot-f3622cfe-1c15-80dd-8003-c81e1ea5dfef" viewBox="0 0 448 512" style="-webkit-print-color-adjust: exact;" fill="none" version="1.1"><g id="shape-f3622cfe-1c15-80dd-8003-c81e1ea5dfef" rx="0" ry="0" style="fill: rgb(0, 0, 0);"><g id="shape-f3622cfe-1c15-80dd-8003-c81e1ea67e9a"><g class="fills" id="fills-f3622cfe-1c15-80dd-8003-c81e1ea67e9a"><path rx="0" ry="0" d="M384.000,32.000L64.000,32.000C28.700,32.000,0.000,60.700,0.000,96.000L0.000,416.000C0.000,451.300,28.700,480.000,64.000,480.000L136.600,480.000L134.400,479.200C129.000,431.100,131.300,421.700,150.100,344.500C154.000,328.500,158.600,309.500,164.000,286.600C164.000,286.600,156.700,271.800,156.700,250.100C156.700,179.400,232.200,172.100,232.200,225.100C232.200,238.600,226.800,256.200,221.000,274.900C217.700,285.500,214.400,296.400,211.900,306.900C206.200,331.400,224.200,351.300,248.300,351.300C292.000,351.300,325.500,305.300,325.500,238.900C325.500,180.100,283.200,139.000,222.900,139.000C153.000,139.000,112.000,191.400,112.000,245.600C112.000,266.700,120.200,289.300,130.300,301.600C132.300,304.000,132.600,306.100,132.000,308.600C130.900,313.300,128.900,321.500,127.300,327.800C126.300,331.800,125.500,335.100,125.200,336.400C124.100,340.900,121.700,341.900,117.000,339.700C86.400,325.400,67.200,280.600,67.200,244.600C67.200,167.100,123.400,96.000,229.400,96.000C314.600,96.000,380.800,156.700,380.800,237.800C380.800,322.400,327.500,390.500,253.400,390.500C228.500,390.500,205.100,377.600,197.100,362.300C197.100,362.300,184.800,409.200,181.800,420.700C176.800,440.000,164.200,463.600,154.400,480.000L384.000,480.000C419.300,480.000,448.000,451.300,448.000,416.000L448.000,96.000C448.000,60.700,419.300,32.000,384.000,32.000ZZ" style="fill: rgb(255, 255, 255); fill-opacity: 1;"/></g></g></g></svg>