<svg xmlns:xlink="http://www.w3.org/1999/xlink" width="448" xmlns="http://www.w3.org/2000/svg" height="512" id="screenshot-f3622cfe-1c15-80dd-8003-c81df7876251" viewBox="0 0 448 512" style="-webkit-print-color-adjust: exact;" fill="none" version="1.1"><g id="shape-f3622cfe-1c15-80dd-8003-c81df7876251" rx="0" ry="0" style="fill: rgb(0, 0, 0);"><g id="shape-f3622cfe-1c15-80dd-8003-c81df78936ce"><g class="fills" id="fills-f3622cfe-1c15-80dd-8003-c81df78936ce"><path rx="0" ry="0" d="M194.400,211.700C169.906,228.075,163.325,261.206,179.700,285.700C196.075,310.194,229.206,316.775,253.700,300.400C278.194,284.025,284.775,250.894,268.400,226.400C252.025,201.906,218.894,195.325,194.400,211.700ZZM336.700,143.300C331.500,138.100,325.200,134.000,318.300,131.300C300.200,124.200,260.700,124.500,235.200,124.800C231.100,124.800,227.300,124.900,224.000,124.900C220.700,124.900,216.800,124.900,212.600,124.800C187.100,124.500,147.800,124.100,129.700,131.300C122.800,134.000,116.600,138.100,111.300,143.300C106.000,148.500,102.000,154.800,99.300,161.700C92.200,179.800,92.600,219.400,92.800,244.900C92.800,249.000,92.900,252.800,92.900,256.000C92.900,259.200,92.900,263.000,92.800,267.100C92.600,292.600,92.200,332.200,99.300,350.300C102.000,357.200,106.100,363.400,111.300,368.700C116.500,374.000,122.800,378.000,129.700,380.700C147.800,387.800,187.300,387.500,212.800,387.200C216.900,387.200,220.700,387.100,224.000,387.100C227.300,387.100,231.200,387.100,235.400,387.200C260.900,387.500,300.200,387.900,318.300,380.700C325.200,378.000,331.400,373.900,336.700,368.700C342.000,363.500,346.000,357.200,348.700,350.300C355.900,332.300,355.500,292.900,355.200,267.300C355.200,263.100,355.100,259.200,355.100,255.900C355.100,252.600,355.100,248.800,355.200,244.500C355.500,219.000,355.900,179.600,348.700,161.500L348.700,161.500C346.000,154.600,341.900,148.400,336.700,143.100ZM269.600,187.800C307.266,212.984,317.384,263.934,292.200,301.600C267.016,339.266,216.066,349.384,178.400,324.200C140.734,299.043,130.593,248.116,155.750,210.450C180.907,172.784,231.834,162.643,269.600,187.800ZZM298.800,186.500C295.700,184.400,293.200,181.400,291.700,177.900C290.200,174.400,289.900,170.600,290.600,166.800C291.300,163.000,293.200,159.700,295.800,157.000C298.400,154.300,301.900,152.500,305.600,151.800C309.300,151.100,313.200,151.400,316.700,152.900C320.200,154.400,323.200,156.800,325.300,159.900C327.400,163.000,328.500,166.700,328.500,170.500C328.500,173.000,328.000,175.500,327.100,177.800C326.200,180.100,324.700,182.200,323.000,184.000C321.300,185.800,319.100,187.200,316.800,188.200C314.500,189.200,312.000,189.700,309.500,189.700L309.500,189.700C305.700,189.700,302.000,188.600,298.800,186.500ZZM448.000,96.000C448.000,60.700,419.300,32.000,384.000,32.000L64.000,32.000C28.700,32.000,0.000,60.700,0.000,96.000L0.000,416.000C0.000,451.300,28.700,480.000,64.000,480.000L384.000,480.000C419.300,480.000,448.000,451.300,448.000,416.000L448.000,96.000ZZM357.000,389.000C338.300,407.700,315.600,413.600,290.000,414.900C263.600,416.400,184.400,416.400,158.000,414.900C132.400,413.600,109.700,407.700,91.000,389.000C72.300,370.300,66.400,347.600,65.200,322.000C63.700,295.600,63.700,216.400,65.200,190.000C66.500,164.400,72.300,141.700,91.000,123.000C109.700,104.300,132.500,98.400,158.000,97.200C184.400,95.700,263.600,95.700,290.000,97.200C315.600,98.500,338.300,104.300,357.000,123.000C375.700,141.700,381.600,164.400,382.800,190.000C384.300,216.300,384.300,295.400,382.800,321.900C381.500,347.500,375.700,370.200,357.000,389.000ZZ" style="fill: rgb(255, 255, 255); fill-opacity: 1;"/></g></g></g></svg>