<svg xmlns:xlink="http://www.w3.org/1999/xlink" width="448" xmlns="http://www.w3.org/2000/svg" height="512" id="screenshot-f3622cfe-1c15-80dd-8003-c81e264e39d3" viewBox="0 0 448 512" style="-webkit-print-color-adjust: exact;" fill="none" version="1.1"><g id="shape-f3622cfe-1c15-80dd-8003-c81e264e39d3" rx="0" ry="0" style="fill: rgb(0, 0, 0);"><g id="shape-f3622cfe-1c15-80dd-8003-c81e264eb9b8"><g class="fills" id="fills-f3622cfe-1c15-80dd-8003-c81e264eb9b8"><path rx="0" ry="0" d="M282.000,256.200L186.800,202.100L186.800,310.300L282.000,256.200ZZM384.000,32.000L64.000,32.000C28.700,32.000,0.000,60.700,0.000,96.000L0.000,416.000C0.000,451.300,28.700,480.000,64.000,480.000L384.000,480.000C419.300,480.000,448.000,451.300,448.000,416.000L448.000,96.000C448.000,60.700,419.300,32.000,384.000,32.000ZZM398.400,168.100C406.000,196.700,406.000,256.300,406.000,256.300C406.000,256.300,406.000,315.900,398.400,344.400C394.200,360.200,381.900,372.100,366.200,376.300C337.900,384.000,224.000,384.000,224.000,384.000C224.000,384.000,110.100,384.000,81.800,376.400C66.100,372.200,53.800,360.300,49.600,344.500C42.000,315.900,42.000,256.300,42.000,256.300C42.000,256.300,42.000,196.600,49.600,168.100C53.800,152.300,66.100,139.900,81.800,135.700C110.100,128.000,224.000,128.000,224.000,128.000C224.000,128.000,337.900,128.000,366.200,135.700C381.900,139.900,394.200,152.300,398.400,168.100ZZ" style="fill: rgb(249, 250, 255); fill-opacity: 1;"/></g></g></g></svg>