<svg xmlns:xlink="http://www.w3.org/1999/xlink" width="448" xmlns="http://www.w3.org/2000/svg" height="448" id="screenshot-f3622cfe-1c15-80dd-8003-c81e2645bdf9" viewBox="2175 -2710 448 448" style="-webkit-print-color-adjust: exact;" fill="none" version="1.1"><g id="shape-f3622cfe-1c15-80dd-8003-c81e2645bdf9"><g class="fills" id="fills-f3622cfe-1c15-80dd-8003-c81e2645bdf9"><path rx="0" ry="0" d="M2239.000,-2710.000C2203.700,-2710.000,2175.000,-2681.300,2175.000,-2646.000L2175.000,-2326.000C2175.000,-2290.700,2203.700,-2262.000,2239.000,-2262.000L2559.000,-2262.000C2594.300,-2262.000,2623.000,-2290.700,2623.000,-2326.000L2623.000,-2646.000C2623.000,-2681.300,2594.300,-2710.000,2559.000,-2710.000L2239.000,-2710.000ZZM2526.300,-2542.700L2526.300,-2542.700ZC2526.300,-2456.000,2460.300,-2356.100,2339.700,-2356.100C2302.500,-2356.100,2268.000,-2366.900,2239.000,-2385.500C2244.300,-2384.900,2249.400,-2384.700,2254.800,-2384.700C2285.500,-2384.700,2313.700,-2395.100,2336.200,-2412.700C2307.400,-2413.300,2283.200,-2432.200,2274.900,-2458.200C2285.000,-2456.700,2294.100,-2456.700,2304.500,-2459.400C2274.500,-2465.500,2252.000,-2491.900,2252.000,-2523.800L2252.000,-2524.600C2260.700,-2519.700,2270.900,-2516.700,2281.600,-2516.300C2272.600,-2522.300,2265.200,-2530.400,2260.100,-2539.900C2255.000,-2549.400,2252.300,-2560.100,2252.400,-2570.900C2252.400,-2583.100,2255.600,-2594.300,2261.300,-2604.000C2293.600,-2564.200,2342.100,-2538.200,2396.500,-2535.400C2387.200,-2579.900,2420.500,-2616.000,2460.500,-2616.000C2479.400,-2616.000,2496.400,-2608.100,2508.400,-2595.300C2523.200,-2598.100,2537.400,-2603.600,2550.000,-2611.100C2545.100,-2595.900,2534.800,-2583.100,2521.200,-2575.000C2534.400,-2576.400,2547.200,-2580.100,2559.000,-2585.200C2550.100,-2572.100,2538.900,-2560.500,2526.100,-2551.200C2526.300,-2548.400,2526.300,-2545.500,2526.300,-2542.700ZZ" style="fill: rgb(254, 254, 255); fill-opacity: 1;"/></g></g></svg>