<svg xmlns:xlink="http://www.w3.org/1999/xlink" width="448" xmlns="http://www.w3.org/2000/svg" height="512" id="screenshot-f3622cfe-1c15-80dd-8003-c8258604c499" viewBox="0 0 448 512" style="-webkit-print-color-adjust: exact;" fill="none" version="1.1"><g id="shape-f3622cfe-1c15-80dd-8003-c8258604c499" rx="0" ry="0" style="fill: rgb(0, 0, 0);"><g id="shape-f3622cfe-1c15-80dd-8003-c825860606d4"><g class="fills" id="fills-f3622cfe-1c15-80dd-8003-c825860606d4"><path rx="0" ry="0" d="M304.000,128.000C304.000,83.817,268.183,48.000,224.000,48.000C179.817,48.000,144.000,83.817,144.000,128.000C144.000,172.183,179.817,208.000,224.000,208.000C268.183,208.000,304.000,172.183,304.000,128.000ZZM96.000,128.000C96.000,57.308,153.308,0.000,224.000,0.000C294.692,0.000,352.000,57.308,352.000,128.000C352.000,198.692,294.692,256.000,224.000,256.000C153.308,256.000,96.000,198.692,96.000,128.000ZZM49.300,464.000L398.700,464.000C389.800,400.700,335.400,352.000,269.700,352.000L178.300,352.000C112.600,352.000,58.200,400.700,49.300,464.000ZZM0.000,482.300C0.000,383.800,79.800,304.000,178.300,304.000L269.700,304.000C368.200,304.000,448.000,383.800,448.000,482.300C448.000,498.700,434.700,512.000,418.300,512.000L29.700,512.000C13.300,512.000,0.000,498.700,0.000,482.300ZZ" style="fill: rgb(255, 255, 255); fill-opacity: 1;"/></g></g></g></svg>